<svg width="65" height="40" viewBox="0 0 65 40" fill="#852D91" xmlns="http://www.w3.org/2000/svg">
<path d="M2.91079 16H0.660795L4.75739 4.36364H7.35966L11.4619 16H9.21193L6.10398 6.75H6.01307L2.91079 16ZM2.98466 11.4375H9.12102V13.1307H2.98466V11.4375ZM14.5946 16V4.36364H16.7026V9.28977H22.0946V4.36364H24.2082V16H22.0946V11.0568H16.7026V16H14.5946ZM28.1009 16V4.36364H30.2088V14.233H35.3338V16H28.1009ZM40.6952 16H38.4452L42.5418 4.36364H45.144L49.2463 16H46.9963L43.8884 6.75H43.7974L40.6952 16ZM40.769 11.4375H46.9054V13.1307H40.769V11.4375ZM52.379 4.36364H54.9585L58.4131 12.7955H58.5494L62.004 4.36364H64.5835V16H62.5608V8.00568H62.4528L59.2369 15.9659H57.7256L54.5097 7.98864H54.4017V16H52.379V4.36364Z" fill="#852D91"/>
<path d="M3.04616 38.2727V26.2727H4.02912V27.9375H4.14844C4.26965 27.6761 4.43632 27.4091 4.64844 27.1364C4.86056 26.8598 5.14086 26.6269 5.48935 26.4375C5.84162 26.2481 6.2848 26.1534 6.81889 26.1534C7.53859 26.1534 8.16738 26.3428 8.70526 26.7216C9.24692 27.0966 9.66738 27.6231 9.96662 28.3011C10.2697 28.9754 10.4212 29.7614 10.4212 30.6591C10.4212 31.5606 10.2697 32.3504 9.96662 33.0284C9.66738 33.7064 9.24692 34.2348 8.70526 34.6136C8.16738 34.9924 7.54238 35.1818 6.83026 35.1818C6.30374 35.1818 5.86245 35.0871 5.50639 34.8977C5.15412 34.7083 4.86813 34.4754 4.64844 34.1989C4.43253 33.9186 4.26586 33.6458 4.14844 33.3807H4.05753V38.2727H3.04616ZM4.04616 30.642C4.04616 31.3466 4.15033 31.9716 4.35866 32.517C4.57079 33.0587 4.87382 33.4848 5.26776 33.7955C5.66548 34.1023 6.14654 34.2557 6.71094 34.2557C7.29048 34.2557 7.77912 34.0966 8.17685 33.7784C8.57836 33.4564 8.88329 33.0227 9.09162 32.4773C9.30374 31.9318 9.4098 31.3201 9.4098 30.642C9.4098 29.9716 9.30563 29.3674 9.0973 28.8295C8.89276 28.2917 8.58973 27.8655 8.18821 27.5511C7.7867 27.233 7.29427 27.0739 6.71094 27.0739C6.14276 27.0739 5.6598 27.2273 5.26207 27.5341C4.86435 27.8371 4.56132 28.2576 4.35298 28.7955C4.14844 29.3295 4.04616 29.9451 4.04616 30.642ZM16.032 35.1818C15.2782 35.1818 14.6115 34.9905 14.032 34.608C13.4562 34.2254 13.0054 33.697 12.6797 33.0227C12.3539 32.3447 12.1911 31.5625 12.1911 30.6761C12.1911 29.7822 12.3539 28.9962 12.6797 28.3182C13.0054 27.6364 13.4562 27.1061 14.032 26.7273C14.6115 26.3447 15.2782 26.1534 16.032 26.1534C16.7857 26.1534 17.4505 26.3447 18.0263 26.7273C18.602 27.1098 19.0528 27.6402 19.3786 28.3182C19.7081 28.9962 19.8729 29.7822 19.8729 30.6761C19.8729 31.5625 19.71 32.3447 19.3842 33.0227C19.0585 33.697 18.6058 34.2254 18.0263 34.608C17.4505 34.9905 16.7857 35.1818 16.032 35.1818ZM16.032 34.2557C16.638 34.2557 17.1513 34.0928 17.5717 33.767C17.9922 33.4413 18.3104 33.0076 18.5263 32.4659C18.746 31.9242 18.8558 31.3277 18.8558 30.6761C18.8558 30.0246 18.746 29.4261 18.5263 28.8807C18.3104 28.3352 17.9922 27.8977 17.5717 27.5682C17.1513 27.2386 16.638 27.0739 16.032 27.0739C15.4297 27.0739 14.9164 27.2386 14.4922 27.5682C14.0717 27.8977 13.7517 28.3352 13.532 28.8807C13.3161 29.4261 13.2081 30.0246 13.2081 30.6761C13.2081 31.3277 13.3161 31.9242 13.532 32.4659C13.7517 33.0076 14.0717 33.4413 14.4922 33.767C14.9126 34.0928 15.4259 34.2557 16.032 34.2557ZM22.093 35V26.2727H23.076V27.6136H23.1499C23.3241 27.1742 23.6271 26.8201 24.0589 26.5511C24.4946 26.2784 24.987 26.142 25.5362 26.142C25.6196 26.142 25.7124 26.1439 25.8146 26.1477C25.9169 26.1515 26.0021 26.1553 26.0703 26.1591V27.1875C26.0249 27.1799 25.9453 27.1686 25.8317 27.1534C25.718 27.1383 25.5949 27.1307 25.4624 27.1307C25.0078 27.1307 24.6025 27.2273 24.2464 27.4205C23.8942 27.6098 23.6158 27.8731 23.4112 28.2102C23.2067 28.5473 23.1044 28.9318 23.1044 29.3636V35H22.093ZM31.7805 26.2727V27.1534H27.6158V26.2727H31.7805ZM28.9169 24.1818H29.9339V32.7216C29.9339 33.0852 29.9964 33.3712 30.1214 33.5795C30.2464 33.7841 30.4093 33.9299 30.6101 34.017C30.8108 34.1004 31.0249 34.142 31.2521 34.142C31.3847 34.142 31.4983 34.1345 31.593 34.1193C31.6877 34.1004 31.7711 34.0814 31.843 34.0625L32.0589 34.9773C31.9605 35.0152 31.8393 35.0492 31.6953 35.0795C31.5514 35.1136 31.3733 35.1307 31.1612 35.1307C30.79 35.1307 30.4321 35.0492 30.0874 34.8864C29.7464 34.7235 29.4661 34.4811 29.2464 34.1591C29.0268 33.8371 28.9169 33.4375 28.9169 32.9602V24.1818ZM37.6683 26.2727V27.1534H33.3786V26.2727H37.6683ZM34.7195 35V24.9943C34.7195 24.5246 34.8274 24.1288 35.0433 23.8068C35.263 23.4848 35.549 23.2405 35.9013 23.0739C36.2536 22.9072 36.6267 22.8239 37.0206 22.8239C37.2857 22.8239 37.5054 22.8466 37.6797 22.892C37.8577 22.9337 37.9979 22.9754 38.1001 23.017L37.8047 23.9034C37.7289 23.8807 37.6361 23.8542 37.5263 23.8239C37.4164 23.7936 37.2782 23.7784 37.1115 23.7784C36.6721 23.7784 36.3331 23.9015 36.0945 24.1477C35.8558 24.3939 35.7365 24.7462 35.7365 25.2045L35.7308 35H34.7195ZM42.7195 35.1818C41.9657 35.1818 41.299 34.9905 40.7195 34.608C40.1437 34.2254 39.6929 33.697 39.3672 33.0227C39.0414 32.3447 38.8786 31.5625 38.8786 30.6761C38.8786 29.7822 39.0414 28.9962 39.3672 28.3182C39.6929 27.6364 40.1437 27.1061 40.7195 26.7273C41.299 26.3447 41.9657 26.1534 42.7195 26.1534C43.4732 26.1534 44.138 26.3447 44.7138 26.7273C45.2895 27.1098 45.7403 27.6402 46.0661 28.3182C46.3956 28.9962 46.5604 29.7822 46.5604 30.6761C46.5604 31.5625 46.3975 32.3447 46.0717 33.0227C45.746 33.697 45.2933 34.2254 44.7138 34.608C44.138 34.9905 43.4732 35.1818 42.7195 35.1818ZM42.7195 34.2557C43.3255 34.2557 43.8388 34.0928 44.2592 33.767C44.6797 33.4413 44.9979 33.0076 45.2138 32.4659C45.4335 31.9242 45.5433 31.3277 45.5433 30.6761C45.5433 30.0246 45.4335 29.4261 45.2138 28.8807C44.9979 28.3352 44.6797 27.8977 44.2592 27.5682C43.8388 27.2386 43.3255 27.0739 42.7195 27.0739C42.1172 27.0739 41.6039 27.2386 41.1797 27.5682C40.7592 27.8977 40.4392 28.3352 40.2195 28.8807C40.0036 29.4261 39.8956 30.0246 39.8956 30.6761C39.8956 31.3277 40.0036 31.9242 40.2195 32.4659C40.4392 33.0076 40.7592 33.4413 41.1797 33.767C41.6001 34.0928 42.1134 34.2557 42.7195 34.2557ZM49.7919 23.3636V35H48.7805V23.3636H49.7919ZM52.4794 35V26.2727H53.4964V35H52.4794ZM52.9964 24.7727C52.7881 24.7727 52.6101 24.7027 52.4624 24.5625C52.3146 24.4186 52.2408 24.2462 52.2408 24.0455C52.2408 23.8447 52.3146 23.6742 52.4624 23.5341C52.6101 23.3902 52.7881 23.3182 52.9964 23.3182C53.2048 23.3182 53.3828 23.3902 53.5305 23.5341C53.6783 23.6742 53.7521 23.8447 53.7521 24.0455C53.7521 24.2462 53.6783 24.4186 53.5305 24.5625C53.3828 24.7027 53.2048 24.7727 52.9964 24.7727ZM59.5632 35.1818C58.8094 35.1818 58.1428 34.9905 57.5632 34.608C56.9875 34.2254 56.5367 33.697 56.2109 33.0227C55.8852 32.3447 55.7223 31.5625 55.7223 30.6761C55.7223 29.7822 55.8852 28.9962 56.2109 28.3182C56.5367 27.6364 56.9875 27.1061 57.5632 26.7273C58.1428 26.3447 58.8094 26.1534 59.5632 26.1534C60.317 26.1534 60.9818 26.3447 61.5575 26.7273C62.1333 27.1098 62.584 27.6402 62.9098 28.3182C63.2393 28.9962 63.4041 29.7822 63.4041 30.6761C63.4041 31.5625 63.2412 32.3447 62.9155 33.0227C62.5897 33.697 62.1371 34.2254 61.5575 34.608C60.9818 34.9905 60.317 35.1818 59.5632 35.1818ZM59.5632 34.2557C60.1693 34.2557 60.6825 34.0928 61.103 33.767C61.5234 33.4413 61.8416 33.0076 62.0575 32.4659C62.2772 31.9242 62.3871 31.3277 62.3871 30.6761C62.3871 30.0246 62.2772 29.4261 62.0575 28.8807C61.8416 28.3352 61.5234 27.8977 61.103 27.5682C60.6825 27.2386 60.1693 27.0739 59.5632 27.0739C58.9609 27.0739 58.4477 27.2386 58.0234 27.5682C57.603 27.8977 57.2829 28.3352 57.0632 28.8807C56.8473 29.4261 56.7393 30.0246 56.7393 30.6761C56.7393 31.3277 56.8473 31.9242 57.0632 32.4659C57.2829 33.0076 57.603 33.4413 58.0234 33.767C58.4439 34.0928 58.9571 34.2557 59.5632 34.2557Z" fill="#852D91"/>
<path d="M2 2H65V0H2V2ZM65 38H2V40H65V38Z" fill="#852D91" mask="url(#path-1-outside-1_6_21)"/>
</svg>
